<svg width="147" height="26" viewBox="0 0 147 26" fill="none" xmlns="http://www.w3.org/2000/svg">
<g filter="url(#filter0_d_404_411)">
<path d="M13.6596 0C19.2507 0 23.2443 3.62983 23.2443 9C23.2443 14.395 19.2507 18 13.6596 18H13.5847C8.11844 18 4 14.395 4 9C4 3.62983 7.99364 0 13.5847 0H13.6596ZM13.6596 12.9033C16.0308 12.9033 17.6533 11.2873 17.6533 9C17.6533 6.73757 16.0308 5.09668 13.6596 5.09668H13.5847C11.2135 5.09668 9.59109 6.73757 9.59109 9C9.59109 11.2873 11.2135 12.9033 13.5847 12.9033H13.6596Z" fill="url(#paint0_linear_404_411)"/>
<path d="M32.9303 0.298342C38.3966 0.298342 42.54 3.60497 42.54 9C42.54 14.3702 38.3966 17.7017 32.9303 17.7017H25.2425V0.298342H32.9303ZM32.9303 12.9282C35.2516 12.8785 36.9489 11.2127 36.9489 9C36.9489 6.76243 35.2516 5.07182 32.9303 5.07182H30.7088V12.9282H32.9303Z" fill="url(#paint1_linear_404_411)"/>
<path d="M54.4359 0.298342H60.7508L53.7619 11.2127V17.7017H48.2707V11.163L41.3068 0.298342H47.5968L51.0163 5.91713L54.4359 0.298342Z" fill="url(#paint2_linear_404_411)"/>
<path d="M70.7977 6.71271C74.9411 6.71271 77.0877 8.87569 77.0877 11.9586C77.0877 15.5387 74.5417 18 68.6761 18H68.2517C61.2629 18 60.1147 14.1215 60.1147 11.7845H65.6309C65.7807 12.6547 66.829 13.1271 68.6012 13.1271H68.6761C70.6479 13.1271 71.4716 12.7293 71.4716 12.058C71.4716 11.5608 71.0473 11.1381 69.7743 11.1381H66.9289C62.5858 11.1381 60.3893 9.14917 60.3893 6.0663C60.3893 3.03315 62.3611 0 68.5263 0H68.7759C75.8397 0 76.7133 4.35083 76.7133 6.04144H71.1971C71.0972 5.32044 70.4233 4.69889 68.6261 4.69889H68.5263C66.4546 4.69889 65.9804 5.27072 65.9804 5.79282C65.9804 6.31492 66.4047 6.71271 67.5279 6.71271H70.7977Z" fill="url(#paint3_linear_404_411)"/>
<path d="M89.5179 6.71271C93.6613 6.71271 95.8078 8.87569 95.8078 11.9586C95.8078 15.5387 93.2619 18 87.3962 18H86.9719C79.9831 18 78.8349 14.1215 78.8349 11.7845H84.3511C84.5009 12.6547 85.5492 13.1271 87.3214 13.1271H87.3962C89.3681 13.1271 90.1918 12.7293 90.1918 12.058C90.1918 11.5608 89.7675 11.1381 88.4945 11.1381H85.649C81.306 11.1381 79.1095 9.14917 79.1095 6.0663C79.1095 3.03315 81.0813 0 87.2465 0H87.4961C94.5598 0 95.4334 4.35083 95.4334 6.04144H89.9172C89.8174 5.32044 89.1435 4.69889 87.3463 4.69889H87.2465C85.1748 4.69889 84.7005 5.27072 84.7005 5.79282C84.7005 6.31492 85.1249 6.71271 86.2481 6.71271H89.5179Z" fill="url(#paint4_linear_404_411)"/>
<path d="M97.9295 17.7017V0.298342H103.421V17.7017H97.9295Z" fill="url(#paint5_linear_404_411)"/>
<path d="M114.536 18C109.194 18 105.925 15.1657 105.925 9.77072V0.298342H111.416V9.27348C111.416 11.1133 112.239 12.7293 114.536 12.7293H114.611C116.932 12.7293 117.731 11.1133 117.731 9.27348V0.298342H123.222V9.77072C123.222 15.1657 119.952 18 114.611 18H114.536Z" fill="url(#paint6_linear_404_411)"/>
<path d="M136.026 6.71271C140.169 6.71271 142.316 8.87569 142.316 11.9586C142.316 15.5387 139.77 18 133.904 18H133.48C126.491 18 125.343 14.1215 125.343 11.7845H130.859C131.009 12.6547 132.057 13.1271 133.829 13.1271H133.904C135.876 13.1271 136.7 12.7293 136.7 12.058C136.7 11.5608 136.275 11.1381 135.002 11.1381H132.157C127.814 11.1381 125.617 9.14917 125.617 6.0663C125.617 3.03315 127.589 0 133.754 0H134.004C141.068 0 141.941 4.35083 141.941 6.04144H136.425C136.325 5.32044 135.651 4.69889 133.854 4.69889H133.754C131.683 4.69889 131.208 5.27072 131.208 5.79282C131.208 6.31492 131.633 6.71271 132.756 6.71271H136.026Z" fill="url(#paint7_linear_404_411)"/>
</g>
<defs>
<filter id="filter0_d_404_411" x="0" y="0" width="146.316" height="26" filterUnits="userSpaceOnUse" color-interpolation-filters="sRGB">
<feFlood flood-opacity="0" result="BackgroundImageFix"/>
<feColorMatrix in="SourceAlpha" type="matrix" values="0 0 0 0 0 0 0 0 0 0 0 0 0 0 0 0 0 0 127 0" result="hardAlpha"/>
<feOffset dy="4"/>
<feGaussianBlur stdDeviation="2"/>
<feComposite in2="hardAlpha" operator="out"/>
<feColorMatrix type="matrix" values="0 0 0 0 0 0 0 0 0 0 0 0 0 0 0 0 0 0 0.25 0"/>
<feBlend mode="normal" in2="BackgroundImageFix" result="effect1_dropShadow_404_411"/>
<feBlend mode="normal" in="SourceGraphic" in2="effect1_dropShadow_404_411" result="shape"/>
</filter>
<linearGradient id="paint0_linear_404_411" x1="6" y1="3.49999" x2="135.5" y2="18" gradientUnits="userSpaceOnUse">
<stop stop-color="#19A7F7"/>
<stop offset="0.505208" stop-color="#E5F523"/>
<stop offset="1" stop-color="#19F7C1"/>
</linearGradient>
<linearGradient id="paint1_linear_404_411" x1="6" y1="3.49999" x2="135.5" y2="18" gradientUnits="userSpaceOnUse">
<stop stop-color="#19A7F7"/>
<stop offset="0.505208" stop-color="#E5F523"/>
<stop offset="1" stop-color="#19F7C1"/>
</linearGradient>
<linearGradient id="paint2_linear_404_411" x1="6" y1="3.49999" x2="135.5" y2="18" gradientUnits="userSpaceOnUse">
<stop stop-color="#19A7F7"/>
<stop offset="0.505208" stop-color="#E5F523"/>
<stop offset="1" stop-color="#19F7C1"/>
</linearGradient>
<linearGradient id="paint3_linear_404_411" x1="6" y1="3.49999" x2="135.5" y2="18" gradientUnits="userSpaceOnUse">
<stop stop-color="#19A7F7"/>
<stop offset="0.505208" stop-color="#E5F523"/>
<stop offset="1" stop-color="#19F7C1"/>
</linearGradient>
<linearGradient id="paint4_linear_404_411" x1="6" y1="3.49999" x2="135.5" y2="18" gradientUnits="userSpaceOnUse">
<stop stop-color="#19A7F7"/>
<stop offset="0.505208" stop-color="#E5F523"/>
<stop offset="1" stop-color="#19F7C1"/>
</linearGradient>
<linearGradient id="paint5_linear_404_411" x1="6" y1="3.49999" x2="135.5" y2="18" gradientUnits="userSpaceOnUse">
<stop stop-color="#19A7F7"/>
<stop offset="0.505208" stop-color="#E5F523"/>
<stop offset="1" stop-color="#19F7C1"/>
</linearGradient>
<linearGradient id="paint6_linear_404_411" x1="6" y1="3.49999" x2="135.5" y2="18" gradientUnits="userSpaceOnUse">
<stop stop-color="#19A7F7"/>
<stop offset="0.505208" stop-color="#E5F523"/>
<stop offset="1" stop-color="#19F7C1"/>
</linearGradient>
<linearGradient id="paint7_linear_404_411" x1="6" y1="3.49999" x2="135.5" y2="18" gradientUnits="userSpaceOnUse">
<stop stop-color="#19A7F7"/>
<stop offset="0.505208" stop-color="#E5F523"/>
<stop offset="1" stop-color="#19F7C1"/>
</linearGradient>
</defs>
</svg>
